<?xml version="1.0" encoding="utf-8"?>
<!-- Generator: Adobe Illustrator 26.4.1, SVG Export Plug-In . SVG Version: 6.00 Build 0)  -->
<svg version="1.1" id="Capa_1" xmlns="http://www.w3.org/2000/svg" xmlns:xlink="http://www.w3.org/1999/xlink" x="0px" y="0px"
	 viewBox="0 0 146.8 124.7" style="enable-background:new 0 0 146.8 124.7;" xml:space="preserve">
<style type="text/css">
	.st0{fill:#CC7FA7;}
	.st1{fill:#FFFFFF;}
</style>
<g>
	<path class="st0" d="M43.3,88.8c0-3.7,0-7.3,0-10.9C43.2,70.2,45,63,49.8,56.8c3.7-4.8,8.7-8,13.7-11.2c4.5-2.9,9.3-5.3,13.1-9.3
		c1.5-1.6,2.8-3.4,3.7-5.4c0.4-0.8,0.4-1.4-0.7-1.8c-2-0.8-2.8-2.4-2.4-4.5c0.9-4.3,2.8-8.1,5.2-11.7c1.4-2.1,3.6-3.1,6.1-3.1
		c1.1,0,2-0.4,2.9-1c4.1-2.6,10.4-2.8,13.3,0.4s6.7,3.8,10.3,5c3.4,1.2,4,2.3,2.3,5.5c-1,2-2.1,3.8-3,5.8c-1.3,2.8-3.5,4-6.4,4
		c-5.9,0.2-6.9,1-7.8,6.9c-0.7,4.8-0.8,9.7-0.7,14.6c0.1,3.4-0.7,6.6-2.7,9.3c-0.4,0.6-0.6,1.2-0.5,2.1c1.7,8.5,3.4,17,5.1,25.5
		c0.2,1.1,0.8,1.4,1.9,1.6c3.2,0.5,4.8,3.5,3,5.8c-0.7,1-1.6,1.5-2.9,1.5c-7.1,0-14.2,0-21.4,0c-1.1,0-1.5-0.4-1.4-1.4
		c0-0.4,0.1-1-0.1-1.3c-2-2.8-0.6-5.8-0.2-8.6c0.5-3.6,0.2-7.1-0.3-10.6c-0.2-1.4-0.2-2.4,1.1-3.4c3.1-2.4,3.9-5.9,2.5-9.6
		c-0.8-2.1,0.6-4,0.5-6c-0.1-1.3,0.8-3-0.2-3.7c-1.2-0.8-2.8,0.2-4.1,0.8c-0.4,0.2-0.9,0.4-1.1,0.7c-2.2,3-5.5,1.9-8.4,2.2
		c-0.8,0.1-1.2-0.5-1.7-1c-1.4-1.4-3.1-2.3-5-2.8c-1.2-0.3-2-0.1-1.8,1.4c0.1,1,0.2,2,0.3,3c0.3,2.6,0.5,5-0.2,7.7
		c-0.8,3.3,1.2,5.9,3.8,8.1c-1,0.6-1.9,1.1-2.8,1.6c-5.2,3.2-7.5,8.2-8.4,14c-0.4,2.4-0.4,4.8-0.3,7.3c0,1.1-0.2,1.7-1.5,1.6
		c-3.5-0.2-7,0.3-10.5-0.4C33,94.5,28.2,86.8,28.3,78c0-2,1.7-3.6,3.6-3.6c1.9-0.1,3.8,1.6,3.8,3.6c0.1,1.6,0.2,3.2,0.8,4.8
		C37.6,85.9,39.7,88,43.3,88.8z"/>
	<path class="st1" d="M29.1,104.5c2.7-2.9,3.8-2.9,5.8,0c0.3-0.4,0.5-0.7,0.8-1c0.7-0.9,1.6-1.4,2.8-1.1c1.2,0.4,1.8,1.4,1.9,2.5
		c0.1,2.9,0.1,5.7,0.1,8.6c0,1.2-0.9,1.1-1.7,1.1c-0.9,0-1.6-0.1-1.6-1.2c0-2,0-4,0-6c0-0.6,0.2-1.5-0.6-1.6s-1,0.8-1.1,1.5
		c-0.3,1.7-0.2,3.5-0.2,5.2c0,1.2,0,2.1-1.7,2.1c-1.8,0-1.6-1.1-1.6-2.2c0-1.8,0-3.5,0-5.2c0-0.5,0.1-1.3-0.6-1.4
		c-0.7-0.1-0.9,0.7-1.1,1.3c-0.5,1.9-0.3,3.9-0.2,5.8c0,1.2-0.3,1.8-1.7,1.8c-1.4,0-1.7-0.6-1.7-1.8c0.1-1.8,0-3.5,0-5.2
		c0-1,0.4-2.2-1.2-2.7c-0.5-0.2-0.4-1.1-0.3-1.7c0.2-0.6,0.7-0.7,1.2-0.6C27.5,102.8,29.2,102.2,29.1,104.5z"/>
	<path class="st1" d="M11.2,111.9c0-0.3,0-0.6,0-0.9c0.1-0.7-0.3-1.6,0.8-1.9c0.9-0.2,1.5,0.2,2,1c0.9,1.6,2.3,2.2,4.1,2.1
		c0.9-0.1,1.6-0.4,1.7-1.4c0.2-1-0.4-1.6-1.2-1.9c-1.1-0.4-2.3-0.6-3.4-0.9c-3.4-0.9-4.7-2.9-3.8-5.8c0.9-2.7,4-4,6.8-2.9
		c0.8,0.3,1.2,0.7,2.1-0.1c1-0.9,2.4,0,2.5,1.5c0,0.1,0,0.1,0,0.2c-0.2,1.1,0.7,2.6-0.7,3.2c-1.3,0.7-1.9-0.9-2.7-1.4
		c-1-0.7-2.2-0.9-3.4-0.7c-0.8,0.1-1.2,0.6-1.3,1.4c0,0.8,0.5,1.1,1.1,1.3c1.1,0.3,2.2,0.5,3.3,0.7c3.5,0.9,5,3.3,4.1,6.3
		c-0.8,2.7-3.9,4.1-7,3.1c-0.9-0.3-1.5-0.8-2.6,0.1c-1,0.9-2.3,0-2.4-1.4C11.1,112.9,11.2,112.4,11.2,111.9z"/>
	<path class="st1" d="M95.4,99.2c1.4,0.1,2.9,0.1,4.3,0.2c2.7,0.3,4.3,2,4.4,4.7c0.2,3-1.2,4.8-4,5.4c-0.7,0.1-1.4,0.1-2,0.3
		c-0.8,0.1-2-0.6-2,1.1s1.2,1.1,1.9,1.1c0.8,0.1,1.7,0,1.7,1.1c0,0.9-0.2,1.6-1.3,1.6c-2.4-0.1-4.7,0-7.1,0c-0.9,0-1.2-0.4-1.2-1.2
		c0-0.9,0.1-1.6,1.2-1.4c1.3,0.2,1.6-0.4,1.5-1.6c-0.1-2.4-0.1-4.7,0-7.1c0-1-0.1-1.6-1.3-1.4c-1.1,0.1-1.4-0.4-1.4-1.4
		c0-1.2,0.7-1.3,1.6-1.3C92.9,99.2,94.2,99.2,95.4,99.2L95.4,99.2z M96.1,104.4c0.3,1.1-0.7,2.7,1.6,2.5c2.1-0.2,3-0.8,3-2.4
		s-1.1-2.4-3.2-2.5C95.2,101.9,96.5,103.6,96.1,104.4z"/>
	<path class="st1" d="M47.8,107c0.8,0.1,1.5,0.2,2.2,0.2c0.4,0,1.1,0.4,1.2-0.4c0.1-0.6-0.3-0.9-0.8-1.1c-1.5-0.6-2.9-0.1-4.4,0.2
		c-0.5,0.1-1.1,0.5-1.6,0.1s-0.7-1-0.7-1.7s0.4-1,1-1.2c2.1-0.6,4.1-0.9,6.3-0.6c2.3,0.4,3.5,1.8,3.6,4.1c0.1,1.1,0,2.1,0,3.2
		s-0.2,2.2,1.4,2.3c0.8,0.1,0.7,0.9,0.7,1.5c0,0.5-0.2,1-0.8,1c-0.9,0-2,0.3-2.7-0.3c-1-0.8-1.8-0.6-2.8-0.1c-1.5,0.8-3.1,1-4.7,0.5
		c-1.9-0.6-3.1-2.1-3-4s1.2-3.1,3.3-3.5C46.5,107.1,47.2,107.1,47.8,107z M48.8,109.8c-0.5,0-0.8,0-1.2,0c-0.8,0-1.5,0.4-1.5,1.3
		c0,0.8,0.7,1.1,1.5,1.1c0.4,0,0.8,0,1.1-0.1c1-0.2,2.5-0.4,2.4-1.6C51,109.4,49.5,110.1,48.8,109.8z"/>
	<path class="st1" d="M115,109.9c-1.1,0-2.2,0-3.4,0c-0.3,0-0.7-0.1-0.8,0.3c0,0.3,0.1,0.6,0.3,0.8c0.8,0.9,1.9,1.1,3.1,1
		c1.1-0.1,2.2-0.3,3.3-0.6c1-0.3,1.5,0.2,1.8,1.1c0.2,0.9-0.1,1.5-1,1.7c-1.8,0.5-3.6,0.9-5.5,0.8c-3.6-0.3-5.8-2.9-5.7-6.6
		c0.1-3.6,2.7-6.1,6.4-6.1c3.5,0,6,2.4,6.3,5.9c0.1,1.2-0.3,1.7-1.6,1.6C117.1,109.9,116.1,109.9,115,109.9z M113.4,107.3
		c0.2,0,0.4,0,0.6,0c0.7-0.1,1.9,0.4,1.9-0.4c0.1-1-1.1-1.4-2-1.5c-0.4-0.1-0.9-0.1-1.3,0.1c-0.8,0.2-1.8,0.6-1.7,1.4
		c0.1,0.8,1.1,0.2,1.7,0.4C112.9,107.4,113.2,107.3,113.4,107.3z"/>
	<path class="st1" d="M82.9,115.1c-2.9,0.1-4.6-1.3-5-3.9c-0.1-0.7-0.2-1.5-0.1-2.2c0.1-1.6,0.1-3-2.2-2.7c-1,0.1-1.2-0.8-1.1-1.6
		c0-0.8,0.4-1.4,1.3-1.2c2.1,0.4,2.2-0.8,2.1-2.4c-0.2-1.4,0.2-2.3,1.9-2.2c1,0.1,1.4,0.4,1.4,1.5c0.1,3.1,0.2,3,3.4,3.1
		c1.1,0,2.4-0.4,2.3,1.5c-0.1,0.8-0.4,1.3-1.2,1.3c-0.4,0-0.8,0-1.1,0c-3.7,0-3.7,0-3.3,3.7c0.2,1.6,0.9,2.2,2.5,1.8
		c0.7-0.1,1.3-0.4,1.9-0.6c0.8-0.4,1.4-0.3,1.8,0.6c0.4,0.8,0.4,1.6-0.6,2C85.5,114.5,84.1,115,82.9,115.1z"/>
	<path class="st1" d="M129.2,108.2c0.1,1,0,1.6,0.1,2.1c0.2,1.4,1,2,2.4,1.6c0.8-0.2,1.5-0.5,2.3-0.8s1.3-0.1,1.6,0.7
		c0.3,0.8,0.5,1.4-0.4,1.9c-1.5,0.8-3.1,1.4-4.8,1.3c-2.5-0.1-3.9-1.4-4.2-3.9c-0.1-0.8-0.2-1.6-0.1-2.4c0.1-1.6,0-2.7-2.1-2.4
		c-1,0.1-1.2-0.6-1.2-1.4c0-0.9,0.3-1.5,1.3-1.4c2,0.4,2.1-0.8,2-2.3c-0.1-1.3,0-2.4,1.8-2.3c1.1,0.1,1.6,0.4,1.5,1.6
		c0,0.4,0,0.9,0,1.3c-0.2,1.3,0.4,1.8,1.7,1.7c0.8-0.1,1.6,0,2.4,0c1.1-0.1,1.6,0.3,1.6,1.5c0,1-0.5,1.5-1.5,1.4
		c-0.6,0-1.3,0.1-1.9,0C129.7,106.1,128.8,106.6,129.2,108.2z"/>
	<path class="st1" d="M64.9,105.6c0.6-0.8,1.2-1.7,2.1-2.3c1.3-0.9,2.6-1.2,4-0.4c1,0.6,1.2,1.4,0.8,2.4c-0.4,0.9-0.9,1.3-2,1
		c-3-1-5.1,2.2-4.8,5.2c0.1,0.6,0.4,0.7,0.9,0.7c0.8,0,1.5,0,2.2,0c0.9-0.1,1.4,0.3,1.4,1.3c0,0.9-0.3,1.4-1.3,1.4
		c-2.7,0-5.4,0-8.1,0c-0.9,0-1.2-0.4-1.2-1.2c0-0.8,0.2-1.6,1.2-1.4c1.5,0.2,1.6-0.6,1.5-1.8c-0.1-1.1-0.1-2.1,0-3.2s0.1-2-1.5-1.8
		c-0.9,0.1-0.9-0.7-0.9-1.3c0-0.6,0.1-1.3,1-1.3c1.1,0,2.1-0.1,3.2,0C65.4,102.9,64.1,104.6,64.9,105.6z"/>
	<path class="st0" d="M69.5,64.9c0,1.3-0.8,2-1.9,2c-1.2,0.1-1.8-0.8-1.8-1.9c0-1.2,0.9-1.9,1.9-1.9C68.8,63.2,69.4,63.9,69.5,64.9z
		"/>
	<path class="st0" d="M80.8,65.1c-0.2,1.2-0.9,1.9-2,1.8S77,66,77.1,64.8c0.1-1.1,0.9-1.7,1.9-1.7C80.1,63.2,80.7,64,80.8,65.1z"/>
</g>
</svg>
