<svg xmlns="http://www.w3.org/2000/svg" xml:space="preserve" id="Capa_1" x="0" y="0" version="1.1" viewBox="0 0 146.8 124.7"><style>.st0{fill:#cc7fa7}.st1{fill:#fff}</style><path d="M43.3 88.8V77.9c-.1-7.7 1.7-14.9 6.5-21.1 3.7-4.8 8.7-8 13.7-11.2 4.5-2.9 9.3-5.3 13.1-9.3 1.5-1.6 2.8-3.4 3.7-5.4.4-.8.4-1.4-.7-1.8-2-.8-2.8-2.4-2.4-4.5.9-4.3 2.8-8.1 5.2-11.7 1.4-2.1 3.6-3.1 6.1-3.1 1.1 0 2-.4 2.9-1 4.1-2.6 10.4-2.8 13.3.4s6.7 3.8 10.3 5c3.4 1.2 4 2.3 2.3 5.5-1 2-2.1 3.8-3 5.8-1.3 2.8-3.5 4-6.4 4-5.9.2-6.9 1-7.8 6.9-.7 4.8-.8 9.7-.7 14.6.1 3.4-.7 6.6-2.7 9.3-.4.6-.6 1.2-.5 2.1l5.1 25.5c.2 1.1.8 1.4 1.9 1.6 3.2.5 4.8 3.5 3 5.8-.7 1-1.6 1.5-2.9 1.5H81.9c-1.1 0-1.5-.4-1.4-1.4 0-.4.1-1-.1-1.3-2-2.8-.6-5.8-.2-8.6.5-3.6.2-7.1-.3-10.6-.2-1.4-.2-2.4 1.1-3.4 3.1-2.4 3.9-5.9 2.5-9.6-.8-2.1.6-4 .5-6-.1-1.3.8-3-.2-3.7-1.2-.8-2.8.2-4.1.8-.4.2-.9.4-1.1.7-2.2 3-5.5 1.9-8.4 2.2-.8.1-1.2-.5-1.7-1-1.4-1.4-3.1-2.3-5-2.8-1.2-.3-2-.1-1.8 1.4l.3 3c.3 2.6.5 5-.2 7.7-.8 3.3 1.2 5.9 3.8 8.1-1 .6-1.9 1.1-2.8 1.6-5.2 3.2-7.5 8.2-8.4 14-.4 2.4-.4 4.8-.3 7.3 0 1.1-.2 1.7-1.5 1.6-3.5-.2-7 .3-10.5-.4C33 94.5 28.2 86.8 28.3 78c0-2 1.7-3.6 3.6-3.6 1.9-.1 3.8 1.6 3.8 3.6.1 1.6.2 3.2.8 4.8 1.1 3.1 3.2 5.2 6.8 6" class="st0"/><path d="M29.1 104.5c2.7-2.9 3.8-2.9 5.8 0 .3-.4.5-.7.8-1 .7-.9 1.6-1.4 2.8-1.1 1.2.4 1.8 1.4 1.9 2.5.1 2.9.1 5.7.1 8.6 0 1.2-.9 1.1-1.7 1.1-.9 0-1.6-.1-1.6-1.2v-6c0-.6.2-1.5-.6-1.6s-1 .8-1.1 1.5c-.3 1.7-.2 3.5-.2 5.2 0 1.2 0 2.1-1.7 2.1-1.8 0-1.6-1.1-1.6-2.2v-5.2c0-.5.1-1.3-.6-1.4s-.9.7-1.1 1.3c-.5 1.9-.3 3.9-.2 5.8 0 1.2-.3 1.8-1.7 1.8s-1.7-.6-1.7-1.8c.1-1.8 0-3.5 0-5.2 0-1 .4-2.2-1.2-2.7-.5-.2-.4-1.1-.3-1.7.2-.6.7-.7 1.2-.6 1.1.1 2.8-.5 2.7 1.8M11.2 111.9v-.9c.1-.7-.3-1.6.8-1.9.9-.2 1.5.2 2 1 .9 1.6 2.3 2.2 4.1 2.1.9-.1 1.6-.4 1.7-1.4.2-1-.4-1.6-1.2-1.9-1.1-.4-2.3-.6-3.4-.9-3.4-.9-4.7-2.9-3.8-5.8.9-2.7 4-4 6.8-2.9.8.3 1.2.7 2.1-.1 1-.9 2.4 0 2.5 1.5v.2c-.2 1.1.7 2.6-.7 3.2-1.3.7-1.9-.9-2.7-1.4-1-.7-2.2-.9-3.4-.7-.8.1-1.2.6-1.3 1.4 0 .8.5 1.1 1.1 1.3 1.1.3 2.2.5 3.3.7 3.5.9 5 3.3 4.1 6.3-.8 2.7-3.9 4.1-7 3.1-.9-.3-1.5-.8-2.6.1-1 .9-2.3 0-2.4-1.4-.1-.6 0-1.1 0-1.6M95.4 99.2c1.4.1 2.9.1 4.3.2 2.7.3 4.3 2 4.4 4.7.2 3-1.2 4.8-4 5.4-.7.1-1.4.1-2 .3-.8.1-2-.6-2 1.1s1.2 1.1 1.9 1.1c.8.1 1.7 0 1.7 1.1 0 .9-.2 1.6-1.3 1.6-2.4-.1-4.7 0-7.1 0-.9 0-1.2-.4-1.2-1.2 0-.9.1-1.6 1.2-1.4 1.3.2 1.6-.4 1.5-1.6-.1-2.4-.1-4.7 0-7.1 0-1-.1-1.6-1.3-1.4-1.1.1-1.4-.4-1.4-1.4 0-1.2.7-1.3 1.6-1.3 1.2-.1 2.5-.1 3.7-.1m.7 5.2c.3 1.1-.7 2.7 1.6 2.5 2.1-.2 3-.8 3-2.4s-1.1-2.4-3.2-2.5c-2.3-.1-1 1.6-1.4 2.4M47.8 107c.8.1 1.5.2 2.2.2.4 0 1.1.4 1.2-.4.1-.6-.3-.9-.8-1.1-1.5-.6-2.9-.1-4.4.2-.5.1-1.1.5-1.6.1s-.7-1-.7-1.7.4-1 1-1.2c2.1-.6 4.1-.9 6.3-.6 2.3.4 3.5 1.8 3.6 4.1.1 1.1 0 2.1 0 3.2s-.2 2.2 1.4 2.3c.8.1.7.9.7 1.5 0 .5-.2 1-.8 1-.9 0-2 .3-2.7-.3-1-.8-1.8-.6-2.8-.1-1.5.8-3.1 1-4.7.5-1.9-.6-3.1-2.1-3-4s1.2-3.1 3.3-3.5c.5-.1 1.2-.1 1.8-.2m1 2.8h-1.2c-.8 0-1.5.4-1.5 1.3 0 .8.7 1.1 1.5 1.1.4 0 .8 0 1.1-.1 1-.2 2.5-.4 2.4-1.6-.1-1.1-1.6-.4-2.3-.7M115 109.9h-3.4c-.3 0-.7-.1-.8.3 0 .3.1.6.3.8.8.9 1.9 1.1 3.1 1q1.65-.15 3.3-.6c1-.3 1.5.2 1.8 1.1.2.9-.1 1.5-1 1.7-1.8.5-3.6.9-5.5.8-3.6-.3-5.8-2.9-5.7-6.6.1-3.6 2.7-6.1 6.4-6.1 3.5 0 6 2.4 6.3 5.9.1 1.2-.3 1.7-1.6 1.6-1.1.1-2.1.1-3.2.1m-1.6-2.6h.6c.7-.1 1.9.4 1.9-.4.1-1-1.1-1.4-2-1.5-.4-.1-.9-.1-1.3.1-.8.2-1.8.6-1.7 1.4s1.1.2 1.7.4c.3.1.6 0 .8 0M82.9 115.1c-2.9.1-4.6-1.3-5-3.9-.1-.7-.2-1.5-.1-2.2.1-1.6.1-3-2.2-2.7-1 .1-1.2-.8-1.1-1.6 0-.8.4-1.4 1.3-1.2 2.1.4 2.2-.8 2.1-2.4-.2-1.4.2-2.3 1.9-2.2 1 .1 1.4.4 1.4 1.5.1 3.1.2 3 3.4 3.1 1.1 0 2.4-.4 2.3 1.5-.1.8-.4 1.3-1.2 1.3h-1.1c-3.7 0-3.7 0-3.3 3.7.2 1.6.9 2.2 2.5 1.8.7-.1 1.3-.4 1.9-.6.8-.4 1.4-.3 1.8.6.4.8.4 1.6-.6 2-1.4.7-2.8 1.2-4 1.3M129.2 108.2c.1 1 0 1.6.1 2.1.2 1.4 1 2 2.4 1.6.8-.2 1.5-.5 2.3-.8s1.3-.1 1.6.7.5 1.4-.4 1.9c-1.5.8-3.1 1.4-4.8 1.3q-3.75-.15-4.2-3.9c-.1-.8-.2-1.6-.1-2.4.1-1.6 0-2.7-2.1-2.4-1 .1-1.2-.6-1.2-1.4 0-.9.3-1.5 1.3-1.4 2 .4 2.1-.8 2-2.3-.1-1.3 0-2.4 1.8-2.3 1.1.1 1.6.4 1.5 1.6v1.3c-.2 1.3.4 1.8 1.7 1.7.8-.1 1.6 0 2.4 0 1.1-.1 1.6.3 1.6 1.5 0 1-.5 1.5-1.5 1.4-.6 0-1.3.1-1.9 0-2-.3-2.9.2-2.5 1.8M64.9 105.6c.6-.8 1.2-1.7 2.1-2.3 1.3-.9 2.6-1.2 4-.4 1 .6 1.2 1.4.8 2.4-.4.9-.9 1.3-2 1-3-1-5.1 2.2-4.8 5.2.1.6.4.7.9.7h2.2c.9-.1 1.4.3 1.4 1.3 0 .9-.3 1.4-1.3 1.4h-8.1c-.9 0-1.2-.4-1.2-1.2s.2-1.6 1.2-1.4c1.5.2 1.6-.6 1.5-1.8-.1-1.1-.1-2.1 0-3.2s.1-2-1.5-1.8c-.9.1-.9-.7-.9-1.3s.1-1.3 1-1.3c1.1 0 2.1-.1 3.2 0 2 0 .7 1.7 1.5 2.7" class="st1"/><path d="M69.5 64.9c0 1.3-.8 2-1.9 2-1.2.1-1.8-.8-1.8-1.9 0-1.2.9-1.9 1.9-1.9 1.1.1 1.7.8 1.8 1.8M80.8 65.1c-.2 1.2-.9 1.9-2 1.8s-1.8-.9-1.7-2.1c.1-1.1.9-1.7 1.9-1.7 1.1.1 1.7.9 1.8 2" class="st0"/></svg>